<svg version="1.0" xmlns="http://www.w3.org/2000/svg"
 width="220.000000pt" height="300.000000pt" viewBox="0 0 220.000000 300.000000"
 preserveAspectRatio="xMidYMid meet">

<g transform="translate(0.000000,300.000000) scale(0.100000,-0.100000)"
fill="" stroke="none">
<path d="M950 2985 c0 -8 -7 -15 -15 -15 -21 0 -19 -12 5 -33 25 -21 28 -21
46 -3 18 18 18 21 -3 46 -21 24 -33 26 -33 5z"/>
<path d="M1045 2990 c-3 -6 1 -13 9 -16 12 -5 16 -21 16 -65 l0 -59 -59 0
c-44 0 -60 4 -65 16 -12 30 -26 2 -26 -52 0 -41 4 -54 15 -54 8 0 15 7 15 15
0 12 13 15 60 15 l60 0 0 -65 c0 -53 -3 -65 -16 -65 -10 0 -14 -6 -10 -15 4
-12 -3 -15 -34 -15 -45 0 -47 2 -23 26 13 13 14 19 5 22 -6 2 -12 10 -12 18 0
8 -7 14 -15 14 -8 0 -15 -7 -15 -15 0 -8 -7 -15 -15 -15 -8 0 -15 -4 -15 -10
0 -5 7 -10 15 -10 8 0 15 -8 15 -19 0 -16 -9 -19 -92 -20 -126 -2 -356 -27
-476 -51 -166 -33 -280 -80 -343 -140 l-39 -37 0 -150 c0 -104 4 -154 13 -166
6 -9 82 -42 167 -73 85 -31 159 -60 163 -65 5 -4 -23 -25 -61 -48 -111 -65
-112 -67 -112 -245 l0 -151 56 -50 56 -50 -112 -78 c-61 -43 -109 -82 -105
-85 4 -4 37 -19 73 -33 l67 -27 3 -86 c1 -47 6 -86 11 -86 4 0 33 18 65 40 31
22 59 40 61 40 3 0 5 -186 5 -414 0 -270 4 -425 11 -443 14 -38 46 -71 94 -96
37 -20 59 -22 280 -27 221 -5 243 -7 280 -27 22 -11 52 -32 66 -45 26 -24 26
-24 50 -5 13 10 45 30 70 42 43 22 62 24 275 31 251 7 277 13 317 65 44 59 47
90 47 522 0 224 2 407 5 407 3 0 36 -20 72 -45 37 -24 69 -43 71 -41 2 2 7 44
10 92 l7 87 73 25 c39 13 70 27 68 31 -3 4 -55 38 -116 76 -61 38 -113 72
-116 76 -2 4 21 32 51 62 l55 54 0 159 c0 87 -4 165 -9 173 -5 7 -46 35 -92
61 l-82 48 69 20 c38 11 94 27 124 36 30 8 80 30 110 48 l55 33 3 153 3 152
-41 44 c-23 25 -64 54 -98 69 -123 56 -381 101 -635 113 -73 3 -145 7 -162 9
-16 1 -47 3 -67 4 -27 1 -38 6 -38 16 0 8 -4 15 -10 15 -6 0 -10 28 -10 65 l0
65 60 0 c47 0 60 -3 60 -15 0 -8 7 -15 15 -15 11 0 15 13 15 54 0 54 -14 82
-26 52 -5 -12 -21 -16 -65 -16 l-59 0 0 60 c0 33 4 60 10 60 6 0 10 7 10 15 0
11 -13 15 -54 15 -30 0 -58 -5 -61 -10z m440 -400 c159 -14 301 -35 402 -61
145 -36 270 -96 259 -124 -2 -7 1 -18 7 -24 8 -8 8 -11 0 -11 -7 0 -10 -19 -8
-55 2 -33 -1 -55 -7 -55 -6 0 -5 -6 2 -15 10 -12 10 -15 0 -15 -7 0 -10 -6 -7
-14 4 -9 -20 -2 -66 20 -190 90 -513 134 -981 134 -457 0 -776 -47 -951 -139
-68 -35 -66 -35 -59 -17 3 9 1 16 -5 16 -6 0 -8 7 -5 15 4 8 1 15 -6 15 -9 0
-7 7 5 20 17 19 17 20 0 20 -14 0 -15 3 -5 15 10 12 10 15 0 15 -10 0 -10 3 0
15 8 10 9 15 2 15 -6 0 -9 7 -6 15 4 9 1 15 -7 15 -7 0 0 13 15 29 72 75 312
143 601 170 132 12 680 12 820 1z m70 -260 c140 -12 279 -36 313 -54 l25 -13
-34 -12 c-19 -7 -92 -32 -163 -57 -71 -24 -135 -49 -143 -55 -21 -18 -19 -327
3 -357 9 -13 13 -26 10 -29 -3 -3 -84 27 -181 67 -135 56 -175 77 -175 91 0
10 6 22 14 26 7 4 25 27 39 50 14 23 31 44 37 48 19 12 10 52 -27 120 -57 102
-134 143 -218 115 -48 -16 -111 -72 -120 -107 -3 -15 -15 -38 -26 -51 -26 -34
-24 -58 9 -98 59 -72 73 -95 70 -110 -2 -12 -59 -39 -178 -84 -96 -38 -177
-66 -179 -64 -2 2 4 15 13 29 14 21 16 49 14 182 l-3 157 -55 21 c-30 12 -111
44 -180 70 -123 48 -124 49 -95 61 42 17 218 43 360 53 174 12 730 12 870 1z
m-473 -110 c-4 -25 -11 -32 -46 -41 -22 -6 -47 -16 -54 -21 -27 -23 -21 2 9
37 52 59 98 72 91 25z m87 15 c30 -15 85 -74 77 -82 -2 -2 -18 3 -35 11 -16 9
-41 16 -56 16 -22 0 -25 4 -25 35 0 40 1 40 39 20z m57 -106 c60 -30 58 -90
-4 -116 -50 -21 -194 -21 -244 0 -35 15 -38 19 -38 56 0 43 14 56 75 72 43 12
178 3 211 -12z m-633 -126 c-5 -13 -3 -15 13 -9 15 6 15 3 -5 -18 l-24 -26 24
0 c22 -1 23 -2 7 -14 -22 -16 -23 -30 -3 -22 20 7 19 -4 -2 -20 -17 -13 -17
-13 0 -14 21 0 22 -8 0 -32 -15 -17 -15 -18 2 -18 17 0 17 -1 2 -18 -10 -10
-14 -22 -10 -25 3 -4 -51 -7 -120 -7 l-127 0 0 -63 0 -63 -55 -27 c-38 -19
-52 -22 -48 -12 3 10 -1 15 -12 15 -17 0 -17 1 0 20 17 19 17 20 0 20 -17 0
-17 1 -2 18 22 24 21 32 0 32 -17 1 -17 1 0 14 21 17 22 26 0 26 -14 0 -14 2
2 20 17 19 17 20 -1 20 -17 1 -17 2 -3 13 9 7 16 17 16 22 -1 8 335 185 350
185 1 0 -1 -8 -4 -17z m1192 -71 c94 -48 168 -90 165 -94 -3 -4 4 -14 15 -22
19 -15 19 -15 1 -16 -18 0 -18 -1 -1 -20 16 -18 16 -20 2 -20 -22 0 -21 -9 1
-26 16 -12 15 -13 -7 -14 l-24 0 23 -25 c21 -22 22 -25 5 -25 -17 0 -17 -1 0
-20 18 -19 17 -20 -4 -20 -12 0 -19 -4 -16 -10 10 -16 -4 -12 -56 17 l-49 26
0 59 0 58 -122 0 c-67 0 -118 3 -115 7 4 3 0 15 -10 25 -15 17 -15 18 2 18 17
0 17 1 2 18 -22 24 -21 32 1 32 16 1 16 1 0 14 -23 17 -23 26 -1 26 15 0 14 2
-3 15 -17 13 -17 14 -1 15 9 0 17 3 17 7 0 3 -8 15 -17 26 -17 20 -17 20 1 14
14 -6 17 -3 12 8 -3 8 -2 15 2 15 4 0 84 -40 177 -88z m-737 41 c47 -6 60 -33
16 -33 -14 0 -23 -4 -19 -10 3 -5 28 -10 55 -10 27 0 52 5 55 10 3 6 -3 10
-14 10 -12 0 -21 7 -21 15 0 10 10 15 29 15 16 0 42 5 57 10 38 15 44 2 12
-24 -16 -12 -28 -29 -28 -38 0 -18 -29 -28 -85 -28 -50 0 -85 9 -85 23 0 5
-11 20 -25 33 -29 27 -34 50 -7 39 9 -4 36 -10 60 -12z m-53 -203 c-14 -40
-23 -75 -21 -77 2 -2 24 30 48 72 50 85 57 82 59 -20 0 -27 4 -70 8 -95 6 -41
8 -34 21 73 7 64 16 117 19 117 3 0 24 -32 45 -70 22 -39 41 -69 42 -67 2 1
-6 36 -16 77 -11 41 -20 76 -20 78 0 1 26 -15 58 -36 88 -59 89 -59 47 -8
l-39 48 35 -15 c222 -94 259 -111 259 -125 0 -43 -123 -112 -201 -112 -15 0
-31 -5 -34 -10 -4 -6 -34 -24 -68 -41 -113 -58 -205 -50 -322 27 -27 18 -72
38 -100 45 -27 6 -61 18 -75 25 -37 18 -86 73 -74 83 7 6 200 86 264 109 8 3
-5 -17 -30 -43 -48 -50 -40 -49 55 14 33 21 61 36 63 32 1 -4 -9 -40 -23 -81z
m-377 -75 c31 -48 94 -92 161 -111 31 -9 67 -23 81 -31 14 -8 52 -27 85 -43
l59 -30 -172 -2 -173 -3 1 -523 c0 -345 4 -531 11 -544 6 -10 25 -28 42 -38
28 -17 51 -20 174 -20 147 0 183 -7 220 -42 21 -20 24 -20 41 -5 40 37 88 47
217 47 148 0 173 9 204 73 21 43 21 53 19 548 l-3 504 -195 5 c-132 3 -184 8
-162 13 17 5 53 23 80 41 26 19 67 36 92 40 69 11 131 47 175 104 l40 51 93 0
92 1 0 -707 c0 -390 -5 -726 -10 -747 -10 -45 -34 -81 -74 -110 -25 -19 -45
-21 -264 -26 -244 -6 -275 -11 -318 -51 -21 -20 -21 -20 -74 13 l-53 33 -246
5 c-261 5 -280 9 -324 58 -46 50 -46 57 -47 815 l0 717 103 0 102 0 23 -35z
m699 -265 l233 0 0 -475 c0 -503 -2 -530 -47 -553 -10 -5 -83 -13 -163 -17
-113 -5 -152 -11 -177 -25 -31 -18 -32 -18 -79 6 -44 22 -59 24 -195 24 -159
0 -169 3 -190 57 -5 14 -9 240 -9 510 l0 486 197 -6 c108 -4 301 -7 430 -7z"/>
<path d="M827 2543 c-3 -4 -8 -26 -12 -48 -4 -22 -9 -48 -12 -57 -3 -12 1 -18
12 -18 9 0 15 6 13 13 -2 6 2 12 7 12 6 0 9 -5 7 -12 -2 -8 6 -13 19 -13 16 0
19 4 14 18 -4 9 -12 35 -18 57 -11 44 -22 61 -30 48z"/>
<path d="M884 2534 c3 -9 6 -38 6 -65 0 -45 2 -49 25 -49 27 0 45 25 45 65 0
43 -17 65 -51 65 -24 0 -30 -4 -25 -16z m46 -51 c0 -35 -3 -44 -10 -33 -13 20
-13 80 0 80 6 0 10 -21 10 -47z"/>
<path d="M1020 2529 c7 -12 9 -39 5 -66 l-6 -45 28 7 c35 8 43 21 43 66 0 42
-15 59 -52 59 -26 0 -28 -2 -18 -21z m50 -44 c0 -11 -5 -27 -10 -35 -7 -11
-10 -1 -10 35 0 36 3 46 10 35 5 -8 10 -24 10 -35z"/>
<path d="M1115 2485 l0 -66 30 3 c22 2 31 9 33 26 2 12 -1 22 -7 22 -6 0 -11
9 -11 20 0 11 -4 20 -10 20 -5 0 -10 8 -10 18 1 16 1 16 14 0 17 -23 26 -23
26 2 0 16 -7 20 -32 20 l-33 0 0 -65z m45 -31 c0 -8 -4 -14 -10 -14 -5 0 -10
9 -10 21 0 11 5 17 10 14 6 -3 10 -13 10 -21z"/>
<path d="M1246 2534 c-8 -22 -7 -87 2 -101 12 -18 52 -12 52 8 0 10 3 24 6 33
4 11 0 16 -14 16 -15 0 -18 -5 -14 -26 3 -19 1 -25 -7 -20 -13 9 -14 65 -1 86
7 12 11 10 19 -10 l10 -25 0 28 c1 22 -3 27 -23 27 -13 0 -27 -7 -30 -16z"/>
<path d="M1335 2497 c1 -60 10 -79 33 -75 21 4 46 128 25 128 -9 0 -13 -16
-13 -55 0 -33 -4 -55 -11 -55 -7 0 -10 20 -7 55 2 44 0 55 -12 55 -12 0 -15
-12 -15 -53z"/>
<path d="M1430 2508 c-6 -24 -15 -53 -20 -65 -7 -18 -6 -23 5 -23 8 0 15 9 15
20 0 11 5 20 11 20 6 0 9 -9 6 -20 -4 -15 0 -20 14 -20 15 0 18 6 14 28 -2 15
-7 44 -10 65 -8 49 -22 47 -35 -5z"/>
<path d="M716 2514 c4 -14 7 -43 8 -65 0 -32 4 -39 21 -39 30 0 45 19 45 58 0
50 -16 72 -51 72 -27 0 -29 -2 -23 -26z m47 -31 c4 -21 2 -42 -3 -47 -7 -7
-10 -4 -10 6 0 8 -3 30 -6 47 -4 18 -2 31 3 31 6 0 13 -17 16 -37z"/>
<path d="M1500 2498 c0 -24 -3 -53 -6 -65 -5 -20 -2 -23 19 -23 32 0 57 33 57
75 0 37 -16 55 -47 55 -20 0 -23 -5 -23 -42z m31 -61 c-8 -8 -11 1 -11 29 0
53 14 67 18 19 2 -21 -1 -42 -7 -48z"/>
<path d="M584 2515 c-10 -25 5 -63 26 -70 11 -3 20 -11 20 -16 0 -14 -28 -11
-33 4 -3 6 -6 2 -6 -11 -1 -20 3 -23 27 -20 40 4 43 45 6 75 -16 12 -25 25
-21 29 3 4 13 1 22 -6 13 -10 15 -9 15 9 0 16 -6 21 -25 21 -14 0 -28 -7 -31
-15z"/>
<path d="M668 2468 c2 -35 5 -64 7 -66 1 -1 10 0 19 4 13 5 14 10 5 20 -6 7
-9 34 -7 59 2 36 0 45 -13 45 -13 0 -15 -11 -11 -62z"/>
<path d="M1597 2488 c-8 -24 -18 -51 -22 -60 -5 -13 -2 -18 9 -18 9 0 16 7 16
15 0 8 5 15 11 15 6 0 8 -8 4 -19 -5 -15 2 -19 41 -25 54 -7 64 -3 64 27 0 20
0 20 -15 1 -13 -18 -14 -16 -15 23 0 23 5 45 10 48 16 10 11 25 -8 25 -15 0
-19 -8 -20 -41 -2 -48 -17 -83 -26 -59 -3 8 -7 35 -8 59 -4 59 -22 62 -41 9z"/>
<path d="M503 2512 c-17 -5 -20 -11 -13 -22 5 -8 10 -36 10 -62 0 -48 4 -54
27 -40 8 5 9 13 3 22 -13 20 -12 30 0 30 6 0 10 -9 10 -19 0 -22 15 -35 29
-27 5 4 3 19 -5 36 -9 16 -13 34 -9 40 7 11 -12 51 -23 49 -4 -1 -17 -4 -29
-7z m24 -44 c-3 -7 -5 -2 -5 12 0 14 2 19 5 13 2 -7 2 -19 0 -25z"/>
<path d="M1751 2452 c-24 -67 -25 -72 -11 -72 6 0 10 9 10 20 0 11 5 20 11 20
6 0 9 -9 6 -19 -3 -13 1 -21 15 -24 17 -5 19 0 16 61 -2 36 -8 67 -14 69 -6 2
-21 -23 -33 -55z"/>
<path d="M402 2493 c-9 -4 -10 -8 -2 -18 6 -7 12 -34 13 -59 2 -45 3 -47 32
-44 25 3 30 8 32 33 2 27 2 28 -7 8 -11 -26 -30 -31 -30 -7 0 8 5 12 11 8 8
-4 9 1 4 16 -4 13 -3 25 4 30 7 3 9 14 5 23 -6 16 -35 21 -62 10z m48 -22 c0
-6 -4 -13 -10 -16 -5 -3 -10 1 -10 9 0 9 5 16 10 16 6 0 10 -4 10 -9z"/>
<path d="M340 2481 c-14 -4 -25 -11 -25 -16 1 -22 48 -114 56 -109 11 6 12
134 2 133 -5 -1 -19 -4 -33 -8z m25 -69 c-8 -8 -26 39 -19 50 5 8 11 1 16 -17
4 -16 6 -31 3 -33z"/>
<path d="M1852 2473 c1 -10 0 -29 -1 -43 -1 -20 -3 -22 -11 -10 -9 13 -11 13
-20 0 -13 -20 -12 -36 3 -48 19 -16 34 -2 47 46 6 24 14 50 17 58 3 9 -2 14
-16 14 -14 0 -20 -6 -19 -17z"/>
<path d="M1903 2428 c-15 -29 -29 -56 -31 -60 -2 -5 3 -8 12 -8 9 0 16 7 16
15 0 8 5 15 11 15 6 0 8 -8 5 -18 -5 -13 1 -22 19 -30 31 -14 58 -16 51 -3 -7
11 3 41 14 41 5 0 6 -16 3 -36 -5 -29 -3 -36 8 -32 7 2 14 18 15 35 1 16 7 40
14 52 10 19 9 26 -2 36 -25 25 -50 22 -53 -5 -5 -42 -24 -82 -36 -74 -7 4 -9
25 -4 59 9 73 -8 78 -42 13z m117 -13 c0 -8 -4 -15 -10 -15 -5 0 -7 7 -4 15 4
8 8 15 10 15 2 0 4 -7 4 -15z"/>
<path d="M264 2464 c-9 -4 -8 -14 4 -36 8 -17 15 -44 16 -60 1 -20 6 -28 20
-28 13 0 16 5 11 18 -4 9 -12 38 -18 65 -7 26 -14 47 -17 46 -3 0 -10 -3 -16
-5z"/>
<path d="M217 2443 c-4 -3 -3 -11 2 -17 4 -6 11 -20 14 -31 5 -14 1 -12 -14 8
-20 26 -59 38 -59 17 0 -5 4 -10 8 -10 9 0 32 -59 32 -83 0 -9 7 -17 15 -17
19 0 19 9 0 34 -26 35 -16 42 11 8 33 -42 47 -33 28 20 -7 22 -14 49 -14 59 0
19 -11 25 -23 12z"/>
<path d="M126 2412 c-3 -5 6 -30 19 -55 16 -28 22 -48 16 -52 -6 -3 -21 15
-33 42 -29 61 -27 58 -39 46 -13 -13 40 -107 64 -111 27 -5 31 25 11 71 -11
23 -19 44 -19 48 0 13 -13 20 -19 11z"/>
<path d="M2065 2359 c-20 -28 -35 -52 -33 -53 25 -15 59 -28 61 -25 2 2 8 25
15 52 24 93 11 101 -43 26z m15 -39 c0 -5 -4 -10 -10 -10 -5 0 -10 5 -10 10 0
6 5 10 10 10 6 0 10 -4 10 -10z"/>
<path d="M1095 2098 c-4 -16 -4 -40 0 -55 l7 -28 10 28 c6 17 6 37 0 55 l-10
27 -7 -27z"/>
<path d="M1030 2070 c0 -25 4 -39 10 -35 6 3 10 19 10 35 0 16 -4 32 -10 35
-6 4 -10 -10 -10 -35z"/>
<path d="M1157 2103 c-11 -10 -8 -61 3 -68 6 -4 10 10 10 34 0 42 -2 46 -13
34z"/>
<path d="M981 2070 c0 -29 1 -32 10 -17 7 11 7 23 0 35 -9 14 -10 11 -10 -18z"/>
<path d="M1211 2070 c0 -29 1 -32 10 -17 7 11 7 23 0 35 -9 14 -10 11 -10 -18z"/>
<path d="M490 1644 c-11 -12 -10 -18 3 -32 16 -15 15 -18 -3 -37 -20 -21 -20
-22 -2 -38 18 -16 20 -16 37 3 17 19 19 19 37 3 17 -15 20 -16 35 0 16 15 15
18 0 35 -15 17 -15 19 0 35 16 16 16 18 0 34 -15 15 -20 16 -38 4 -15 -9 -24
-10 -32 -2 -15 15 -22 14 -37 -5z"/>
<path d="M1620 1635 c-10 -13 -10 -19 5 -35 17 -19 17 -21 0 -40 -17 -19 -18
-22 -2 -37 15 -16 18 -15 37 2 19 17 22 18 37 2 16 -15 18 -15 35 0 17 15 17
17 2 35 -16 17 -16 19 0 36 15 18 15 20 -4 37 -19 17 -21 17 -39 1 -16 -15
-19 -15 -31 -1 -16 19 -24 19 -40 0z"/>
<path d="M1730 1290 c0 -5 5 -10 11 -10 5 0 7 5 4 10 -3 6 -8 10 -11 10 -2 0
-4 -4 -4 -10z"/>
<path d="M490 1276 c0 -2 7 -7 16 -10 8 -3 12 -2 9 4 -6 10 -25 14 -25 6z"/>
<path d="M1640 1254 c0 -10 13 -14 50 -14 69 0 69 24 0 27 -38 1 -50 -2 -50
-13z"/>
<path d="M535 1250 c2 -4 -7 -13 -20 -20 -14 -7 -25 -19 -25 -27 0 -11 5 -11
30 2 16 8 38 15 50 15 31 0 24 27 -9 32 -17 2 -28 1 -26 -2z"/>
<path d="M1640 1173 c0 -9 17 -13 50 -13 33 0 50 4 50 13 0 8 -17 12 -50 12
-33 0 -50 -4 -50 -12z"/>
<path d="M1659 1131 c-28 -23 -20 -38 10 -19 15 9 23 10 32 1 14 -14 39 -6 39
13 0 8 -6 11 -15 8 -8 -4 -21 -1 -29 5 -10 9 -19 7 -37 -8z"/>
<path d="M531 1106 c-31 -16 -39 -25 -28 -29 19 -7 87 23 87 40 0 17 -7 16
-59 -11z"/>
<path d="M1640 1069 c0 -5 4 -8 9 -4 5 3 12 1 16 -5 3 -5 11 -10 18 -10 6 0 2
7 -9 15 -23 17 -34 19 -34 4z"/>
<path d="M1700 1041 c0 -5 -13 -12 -30 -16 -16 -4 -30 -13 -30 -21 0 -18 -1
-18 56 7 37 15 45 22 34 29 -19 12 -30 12 -30 1z"/>
<path d="M490 1009 c0 -5 5 -7 10 -4 6 3 10 8 10 11 0 2 -4 4 -10 4 -5 0 -10
-5 -10 -11z"/>
<path d="M530 995 c-8 -14 -20 -23 -27 -21 -7 3 -13 1 -13 -5 0 -25 34 -21 57
7 13 16 28 28 34 26 6 -1 8 2 4 8 -11 19 -41 10 -55 -15z"/>
<path d="M575 960 c-3 -5 -1 -10 4 -10 6 0 11 5 11 10 0 6 -2 10 -4 10 -3 0
-8 -4 -11 -10z"/>
<path d="M1640 946 c0 -9 8 -12 26 -8 20 4 25 1 22 -9 -3 -8 -15 -14 -27 -13
-11 0 -21 -6 -21 -13 0 -19 27 -28 44 -14 10 9 16 9 21 1 5 -8 11 -8 21 1 20
17 17 28 -6 22 -11 -3 -20 0 -20 6 0 6 9 11 20 11 11 0 20 7 20 15 0 11 -12
15 -50 15 -36 0 -50 -4 -50 -14z"/>
<path d="M521 896 c-52 -53 -32 -63 24 -12 40 37 46 46 29 46 -11 0 -35 -15
-53 -34z"/>
<path d="M1640 861 c0 -9 30 -24 36 -18 2 1 -6 8 -16 15 -11 7 -20 8 -20 3z"/>
<path d="M1694 831 c3 -5 -8 -14 -24 -21 -17 -7 -30 -18 -30 -26 0 -10 12 -8
48 8 26 11 48 22 50 23 1 1 -9 7 -24 13 -14 7 -23 8 -20 3z"/>
<path d="M490 805 c0 -8 2 -15 4 -15 2 0 6 7 10 15 3 8 1 15 -4 15 -6 0 -10
-7 -10 -15z"/>
<path d="M575 810 c3 -5 8 -10 11 -10 2 0 4 5 4 10 0 6 -5 10 -11 10 -5 0 -7
-4 -4 -10z"/>
<path d="M538 773 c-66 -6 -64 -28 2 -28 41 0 50 3 50 18 0 9 -1 16 -2 15 -2
-1 -24 -3 -50 -5z"/>
<path d="M1641 747 c-18 -22 9 -45 57 -49 33 -3 42 0 42 12 0 12 -8 15 -35 12
-19 -2 -43 -1 -52 3 -17 7 -17 8 1 14 12 5 15 10 9 14 -6 4 -16 1 -22 -6z"/>
<path d="M490 698 c0 -9 17 -13 50 -13 33 0 50 4 50 13 0 8 -17 12 -50 12 -33
0 -50 -4 -50 -12z"/>
<path d="M1650 660 c8 -5 20 -10 25 -10 6 0 3 5 -5 10 -8 5 -19 10 -25 10 -5
0 -3 -5 5 -10z"/>
<path d="M497 653 c-14 -13 -6 -21 18 -19 28 1 35 26 7 26 -10 0 -22 -3 -25
-7z"/>
<path d="M1694 642 c3 -6 -9 -16 -29 -23 -19 -7 -35 -19 -35 -26 0 -17 7 -16
59 11 44 23 44 24 22 36 -13 6 -21 7 -17 2z"/>
<path d="M490 603 c0 -9 17 -13 50 -13 33 0 50 4 50 13 0 8 -17 12 -50 12 -33
0 -50 -4 -50 -12z"/>
<path d="M491 336 c-9 -10 -8 -16 4 -26 19 -16 19 -34 0 -50 -14 -12 -14 -15
1 -32 16 -17 19 -17 35 -2 14 13 22 13 39 4 18 -10 25 -9 38 4 14 14 14 17 -1
34 -15 17 -15 19 0 35 16 16 16 18 0 34 -15 15 -20 16 -38 4 -15 -9 -24 -10
-32 -2 -15 15 -32 14 -46 -3z"/>
<path d="M1611 326 c-9 -10 -8 -16 4 -26 19 -16 19 -29 0 -50 -14 -15 -14 -18
0 -30 13 -11 20 -11 40 0 20 11 27 11 40 0 13 -11 19 -11 32 3 15 15 15 18 0
35 -15 17 -15 19 0 35 16 16 16 18 0 34 -15 15 -20 16 -38 4 -15 -9 -24 -10
-32 -2 -15 15 -32 14 -46 -3z"/>
<path d="M1047 1370 c-19 -16 -44 -30 -56 -30 -43 0 -80 -28 -91 -70 -6 -22
-9 -44 -6 -49 3 -5 -1 -23 -10 -40 -39 -79 47 -211 137 -211 22 0 49 5 60 10
18 10 19 7 19 -42 -1 -47 -5 -58 -38 -94 -40 -45 -102 -69 -102 -40 0 8 9 20
20 26 25 13 27 42 3 33 -16 -6 -16 -4 1 15 15 17 16 22 5 26 -74 23 -122 5
-140 -52 -8 -29 -8 -44 0 -60 18 -35 13 -56 -23 -84 -19 -16 -37 -28 -40 -28
-2 0 4 25 15 56 11 31 19 73 17 93 -2 29 -8 37 -32 46 -25 8 -31 6 -52 -18
-28 -32 -30 -55 -9 -83 13 -16 16 -17 25 -4 5 8 7 30 4 48 -5 28 -3 32 15 32
28 0 28 -37 1 -115 -23 -66 -25 -117 -9 -164 9 -24 9 -35 0 -44 -17 -17 -13
-64 5 -71 22 -8 54 -8 54 2 0 4 -9 13 -20 20 -26 16 -25 35 2 47 12 6 25 21
29 35 5 17 7 4 8 -37 1 -53 4 -63 22 -68 27 -9 39 4 16 16 -23 13 -22 28 5 56
18 19 20 27 10 48 -8 17 -20 25 -38 25 -19 0 -25 4 -22 18 2 12 17 19 55 23
63 8 68 11 93 57 11 20 42 61 70 91 l50 55 0 -33 c0 -26 -6 -35 -32 -49 -17
-9 -39 -25 -50 -34 -34 -33 -18 -40 28 -14 26 14 48 26 50 26 2 0 4 -54 4
-121 l0 -120 -32 -30 -32 -29 31 0 c25 0 32 -5 37 -25 8 -32 34 -32 46 0 6 17
17 25 33 25 37 0 38 10 6 37 l-29 25 0 119 c0 65 3 119 6 119 4 0 22 -14 41
-30 18 -17 40 -30 49 -30 25 0 0 32 -50 65 -38 25 -46 35 -46 63 0 43 12 41
38 -7 13 -22 31 -43 42 -46 10 -3 24 -22 30 -41 14 -41 40 -60 98 -69 45 -7
62 -26 62 -68 0 -13 11 -34 25 -47 32 -30 31 -38 -2 -52 -28 -11 -28 -12 -5
-16 13 -2 30 -1 38 2 17 6 19 47 3 63 -8 8 -7 23 6 57 17 44 17 47 -8 140 -21
78 -23 98 -13 112 18 23 33 11 29 -23 -2 -15 1 -35 7 -43 9 -13 11 -13 20 0
17 26 11 60 -15 85 -31 32 -40 31 -62 -1 -16 -25 -16 -30 1 -96 10 -38 16 -71
14 -73 -1 -2 -20 13 -42 32 -38 35 -38 36 -23 67 18 40 12 78 -18 106 -18 17
-33 21 -70 18 -51 -3 -73 -25 -36 -35 28 -7 27 -23 -1 -23 l-21 0 23 -25 c16
-17 20 -29 13 -36 -16 -16 -57 5 -97 52 -29 35 -36 51 -36 85 l0 43 33 -6 c51
-8 92 19 138 89 44 68 47 85 22 131 -10 18 -18 49 -18 69 -1 45 -25 73 -74 89
-20 7 -50 23 -67 36 -46 34 -104 32 -147 -7z m-64 -177 c-7 -2 -21 -2 -30 0
-10 3 -4 5 12 5 17 0 24 -2 18 -5z m150 0 c-7 -2 -19 -2 -25 0 -7 3 -2 5 12 5
14 0 19 -2 13 -5z m150 0 c-7 -2 -21 -2 -30 0 -10 3 -4 5 12 5 17 0 24 -2 18
-5z m-226 -44 c-14 -8 -22 -8 -30 0 -8 8 -3 11 19 11 25 -1 27 -2 11 -11z
m158 1 c-7 -12 -32 -13 -39 -2 -2 4 7 9 20 10 15 1 22 -2 19 -8z m68 -77 c-7
-2 -19 -2 -25 0 -7 3 -2 5 12 5 14 0 19 -2 13 -5z m-290 -10 c-7 -2 -19 -2
-25 0 -7 3 -2 5 12 5 14 0 19 -2 13 -5z m40 -64 c-8 -8 -16 -8 -30 0 -16 9
-14 10 12 11 21 0 26 -3 18 -11z m210 4 c-7 -2 -19 -2 -25 0 -7 3 -2 5 12 5
14 0 19 -2 13 -5z m-323 -179 c0 -8 -5 -12 -10 -9 -6 4 -8 11 -5 16 9 14 15
11 15 -7z m440 2 c0 -3 -4 -8 -10 -11 -5 -3 -10 -1 -10 4 0 6 5 11 10 11 6 0
10 -2 10 -4z"/>
<path d="M1372 594 c-27 -19 -28 -39 -2 -61 24 -21 25 -31 3 -55 -15 -17 -15
-18 10 -18 27 0 27 0 27 75 0 41 -3 75 -8 75 -4 0 -18 -7 -30 -16z"/>
<path d="M1208 2971 c-22 -22 -23 -31 -3 -31 8 0 15 -7 15 -15 0 -21 12 -19
33 5 21 25 21 28 3 46 -18 18 -27 17 -48 -5z"/>
<path d="M1223 2696 c-22 -22 -22 -23 -2 -39 24 -21 26 -21 49 1 18 17 18 18
-4 39 l-22 21 -21 -22z"/>
</g>
</svg>
